<svg data-v-423bf9ae="" xmlns="http://www.w3.org/2000/svg" viewBox="0 0 483 90" class="iconLeft"><!----><!----><!----><g data-v-423bf9ae="" id="7226677f-d75c-4fd9-b7f0-92c8810d08db" fill="#dc3545" transform="matrix(5.40054022089364,0,0,5.40054022089364,143.41539576469611,-1.6876695342849999)"><path d="M0.24 12.60C1.40 13.55 3.08 14.17 4.72 14.17C6.90 14.17 8.64 13.13 8.64 11.17C8.64 7.63 3.46 8.60 3.46 6.90C3.46 6.43 3.89 6.19 4.54 6.19C5.33 6.19 6.64 6.61 7.67 7.21L8.61 5.26C7.60 4.61 6.16 4.17 4.75 4.17C2.39 4.17 0.84 5.32 0.84 7.13C0.84 10.60 6.02 9.56 6.02 11.30C6.02 11.86 5.53 12.15 4.75 12.15C3.72 12.15 2.21 11.56 1.20 10.68ZM9.35 9.18C9.35 12.04 11.61 14.20 14.59 14.20C15.96 14.20 17.61 13.66 18.66 12.92L18.66 9.10L16.51 9.10L16.51 11.63C15.92 11.93 15.27 12.11 14.77 12.11C13.15 12.11 11.90 10.85 11.90 9.18C11.90 7.55 13.13 6.29 14.74 6.29C15.65 6.29 16.65 6.69 17.36 7.35L18.76 5.66C17.75 4.76 16.21 4.20 14.76 4.20C11.66 4.20 9.35 6.34 9.35 9.18ZM20.23 9.97C20.23 12.56 21.99 14.20 24.75 14.20C27.50 14.20 29.22 12.56 29.22 9.97L29.22 4.28L26.74 4.28L26.74 9.97C26.74 11.30 25.94 12.11 24.77 12.11C23.58 12.11 22.72 11.30 22.72 9.97L22.72 4.28L20.23 4.28ZM31.00 14.08L33.42 14.08L33.42 10.09C33.52 9.20 34.08 8.57 34.96 8.57C35.77 8.57 36.29 9.11 36.29 10.00L36.29 14.08L38.70 14.08L38.70 9.32C38.70 7.56 37.60 6.43 35.94 6.43C34.82 6.44 33.95 6.89 33.42 7.77L33.42 6.54L31.00 6.54ZM40.36 4.37C40.36 5.12 40.89 5.66 41.64 5.66C42.38 5.66 42.91 5.12 42.91 4.37C42.91 3.63 42.38 3.09 41.64 3.09C40.89 3.09 40.36 3.63 40.36 4.37ZM40.42 14.08L42.83 14.08L42.83 6.54L40.42 6.54ZM44.14 9.18C44.14 12.04 46.40 14.20 49.38 14.20C50.75 14.20 52.40 13.66 53.45 12.92L53.45 9.10L51.30 9.10L51.30 11.63C50.71 11.93 50.06 12.11 49.56 12.11C47.94 12.11 46.69 10.85 46.69 9.18C46.69 7.55 47.92 6.29 49.53 6.29C50.44 6.29 51.44 6.69 52.15 7.35L53.55 5.66C52.54 4.76 51.00 4.20 49.55 4.20C46.45 4.20 44.14 6.34 44.14 9.18ZM54.54 10.30C54.54 12.63 56.20 14.17 58.67 14.17C61.14 14.17 62.79 12.63 62.79 10.30C62.79 7.98 61.14 6.45 58.67 6.45C56.20 6.45 54.54 7.98 54.54 10.30ZM56.98 10.33C56.98 9.17 57.67 8.37 58.67 8.37C59.67 8.37 60.35 9.17 60.35 10.33C60.35 11.51 59.67 12.29 58.67 12.29C57.67 12.29 56.98 11.51 56.98 10.33Z"></path></g><!----><g data-v-423bf9ae="" id="4a1d0231-fa7a-475a-a1ee-e8d9d5b5ecf5" transform="matrix(3.897668234569549,0,0,3.897668234569549,0.633928881448135,-10.430102858573903)" stroke="none" fill="#dc3545"><path d="M16 17c-.127 0-.254-.024-.374-.072l-15-6.045a1.003 1.003 0 0 1 0-1.856l15-6.045a.998.998 0 0 1 .748 0l15 6.045a1.002 1.002 0 0 1 0 1.856l-15 6.045c-.12.048-.247.072-.374.072zM3.675 9.955L16 14.922l12.325-4.967L16 4.987 3.675 9.955z"></path><path d="M16 26c-5.204 0-9.396-2.875-9.571-2.998a.998.998 0 0 1-.429-.82V13a1 1 0 0 1 2 0v8.631C9.125 22.304 12.326 24 16 24c3.691 0 6.879-1.694 8-2.368V13a1 1 0 1 1 2 0v9.182c0 .327-.16.634-.429.82C25.396 23.125 21.204 26 16 26zM31 26a1 1 0 0 1-1-1V10a1 1 0 1 1 2 0v15a1 1 0 0 1-1 1z"></path></g><!----></svg>