<svg width="318" height="48" viewBox="0 0 318 48" fill="none" xmlns="http://www.w3.org/2000/svg">
<rect width="318" height="48" rx="8" fill="#F4333D"/>
<path d="M23.56 30L20.932 25.23H20.194V30H17.116V17.364H22.282C23.278 17.364 24.124 17.538 24.82 17.886C25.528 18.234 26.056 18.714 26.404 19.326C26.752 19.926 26.926 20.598 26.926 21.342C26.926 22.182 26.686 22.932 26.206 23.592C25.738 24.252 25.042 24.72 24.118 24.996L27.034 30H23.56ZM20.194 23.052H22.102C22.666 23.052 23.086 22.914 23.362 22.638C23.65 22.362 23.794 21.972 23.794 21.468C23.794 20.988 23.65 20.61 23.362 20.334C23.086 20.058 22.666 19.92 22.102 19.92H20.194V23.052Z" fill="white"/>
<path d="M38.3262 24.816C38.3262 25.104 38.3082 25.404 38.2722 25.716H31.3062C31.3542 26.34 31.5522 26.82 31.9002 27.156C32.2602 27.48 32.6982 27.642 33.2142 27.642C33.9822 27.642 34.5162 27.318 34.8162 26.67H38.0922C37.9242 27.33 37.6182 27.924 37.1742 28.452C36.7422 28.98 36.1962 29.394 35.5362 29.694C34.8762 29.994 34.1382 30.144 33.3222 30.144C32.3382 30.144 31.4622 29.934 30.6942 29.514C29.9262 29.094 29.3262 28.494 28.8942 27.714C28.4622 26.934 28.2462 26.022 28.2462 24.978C28.2462 23.934 28.4562 23.022 28.8762 22.242C29.3082 21.462 29.9082 20.862 30.6762 20.442C31.4442 20.022 32.3262 19.812 33.3222 19.812C34.2942 19.812 35.1582 20.016 35.9142 20.424C36.6702 20.832 37.2582 21.414 37.6782 22.17C38.1102 22.926 38.3262 23.808 38.3262 24.816ZM35.1762 24.006C35.1762 23.478 34.9962 23.058 34.6362 22.746C34.2762 22.434 33.8262 22.278 33.2862 22.278C32.7702 22.278 32.3322 22.428 31.9722 22.728C31.6242 23.028 31.4082 23.454 31.3242 24.006H35.1762Z" fill="white"/>
<path d="M45.548 27.39V30H43.982C42.866 30 41.996 29.73 41.372 29.19C40.748 28.638 40.436 27.744 40.436 26.508V22.512H39.212V19.956H40.436V17.508H43.514V19.956H45.53V22.512H43.514V26.544C43.514 26.844 43.586 27.06 43.73 27.192C43.874 27.324 44.114 27.39 44.45 27.39H45.548Z" fill="white"/>
<path d="M50.3405 21.63C50.7005 21.078 51.1505 20.646 51.6905 20.334C52.2305 20.01 52.8305 19.848 53.4905 19.848V23.106H52.6445C51.8765 23.106 51.3005 23.274 50.9165 23.61C50.5325 23.934 50.3405 24.51 50.3405 25.338V30H47.2625V19.956H50.3405V21.63Z" fill="white"/>
<path d="M56.5097 18.912C55.9697 18.912 55.5257 18.756 55.1777 18.444C54.8417 18.12 54.6737 17.724 54.6737 17.256C54.6737 16.776 54.8417 16.38 55.1777 16.068C55.5257 15.744 55.9697 15.582 56.5097 15.582C57.0377 15.582 57.4697 15.744 57.8057 16.068C58.1537 16.38 58.3277 16.776 58.3277 17.256C58.3277 17.724 58.1537 18.12 57.8057 18.444C57.4697 18.756 57.0377 18.912 56.5097 18.912ZM58.0397 19.956V30H54.9617V19.956H58.0397Z" fill="white"/>
<path d="M69.7383 24.816C69.7383 25.104 69.7203 25.404 69.6843 25.716H62.7183C62.7663 26.34 62.9643 26.82 63.3123 27.156C63.6723 27.48 64.1103 27.642 64.6263 27.642C65.3943 27.642 65.9283 27.318 66.2283 26.67H69.5043C69.3363 27.33 69.0303 27.924 68.5863 28.452C68.1543 28.98 67.6083 29.394 66.9483 29.694C66.2883 29.994 65.5503 30.144 64.7343 30.144C63.7503 30.144 62.8743 29.934 62.1063 29.514C61.3383 29.094 60.7383 28.494 60.3063 27.714C59.8743 26.934 59.6583 26.022 59.6583 24.978C59.6583 23.934 59.8683 23.022 60.2883 22.242C60.7203 21.462 61.3203 20.862 62.0883 20.442C62.8563 20.022 63.7383 19.812 64.7343 19.812C65.7063 19.812 66.5703 20.016 67.3263 20.424C68.0823 20.832 68.6703 21.414 69.0903 22.17C69.5223 22.926 69.7383 23.808 69.7383 24.816ZM66.5883 24.006C66.5883 23.478 66.4083 23.058 66.0483 22.746C65.6883 22.434 65.2383 22.278 64.6983 22.278C64.1823 22.278 63.7443 22.428 63.3843 22.728C63.0363 23.028 62.8203 23.454 62.7363 24.006H66.5883Z" fill="white"/>
<path d="M75.8801 27.12L78.0581 19.956H81.3341L77.7701 30H73.9721L70.4081 19.956H73.7021L75.8801 27.12Z" fill="white"/>
<path d="M92.0977 24.816C92.0977 25.104 92.0797 25.404 92.0437 25.716H85.0777C85.1257 26.34 85.3237 26.82 85.6717 27.156C86.0317 27.48 86.4697 27.642 86.9857 27.642C87.7537 27.642 88.2877 27.318 88.5877 26.67H91.8637C91.6957 27.33 91.3897 27.924 90.9457 28.452C90.5137 28.98 89.9677 29.394 89.3077 29.694C88.6477 29.994 87.9097 30.144 87.0937 30.144C86.1097 30.144 85.2337 29.934 84.4657 29.514C83.6977 29.094 83.0977 28.494 82.6657 27.714C82.2337 26.934 82.0177 26.022 82.0177 24.978C82.0177 23.934 82.2277 23.022 82.6477 22.242C83.0797 21.462 83.6797 20.862 84.4477 20.442C85.2157 20.022 86.0977 19.812 87.0937 19.812C88.0657 19.812 88.9297 20.016 89.6857 20.424C90.4417 20.832 91.0297 21.414 91.4497 22.17C91.8817 22.926 92.0977 23.808 92.0977 24.816ZM88.9477 24.006C88.9477 23.478 88.7677 23.058 88.4077 22.746C88.0477 22.434 87.5977 22.278 87.0577 22.278C86.5417 22.278 86.1037 22.428 85.7437 22.728C85.3957 23.028 85.1797 23.454 85.0957 24.006H88.9477Z" fill="white"/>
<path d="M111.846 17.364V30H108.768V22.422L105.942 30H103.458L100.614 22.404V30H97.5359V17.364H101.172L104.718 26.112L108.228 17.364H111.846Z" fill="white"/>
<path d="M124.319 19.956L118.019 34.77H114.707L117.011 29.658L112.925 19.956H116.363L118.685 26.238L120.989 19.956H124.319Z" fill="white"/>
<path d="M126.98 18.912C126.44 18.912 125.996 18.756 125.648 18.444C125.312 18.12 125.144 17.724 125.144 17.256C125.144 16.776 125.312 16.38 125.648 16.068C125.996 15.744 126.44 15.582 126.98 15.582C127.508 15.582 127.94 15.744 128.276 16.068C128.624 16.38 128.798 16.776 128.798 17.256C128.798 17.724 128.624 18.12 128.276 18.444C127.94 18.756 127.508 18.912 126.98 18.912ZM128.51 19.956V30H125.432V19.956H128.51Z" fill="white"/>
<path d="M136.861 19.848C138.037 19.848 138.973 20.232 139.669 21C140.377 21.756 140.731 22.8 140.731 24.132V30H137.671V24.546C137.671 23.874 137.497 23.352 137.149 22.98C136.801 22.608 136.333 22.422 135.745 22.422C135.157 22.422 134.689 22.608 134.341 22.98C133.993 23.352 133.819 23.874 133.819 24.546V30H130.741V19.956H133.819V21.288C134.131 20.844 134.551 20.496 135.079 20.244C135.607 19.98 136.201 19.848 136.861 19.848Z" fill="white"/>
<path d="M147.91 22.512H146.254V30H143.176V22.512H142.06V19.956H143.176V19.668C143.176 18.432 143.53 17.496 144.238 16.86C144.946 16.212 145.984 15.888 147.352 15.888C147.58 15.888 147.748 15.894 147.856 15.906V18.516C147.268 18.48 146.854 18.564 146.614 18.768C146.374 18.972 146.254 19.338 146.254 19.866V19.956H147.91V22.512Z" fill="white"/>
<path d="M153.928 30.144C152.944 30.144 152.056 29.934 151.264 29.514C150.484 29.094 149.866 28.494 149.41 27.714C148.966 26.934 148.744 26.022 148.744 24.978C148.744 23.946 148.972 23.04 149.428 22.26C149.884 21.468 150.508 20.862 151.3 20.442C152.092 20.022 152.98 19.812 153.964 19.812C154.948 19.812 155.836 20.022 156.628 20.442C157.42 20.862 158.044 21.468 158.5 22.26C158.956 23.04 159.184 23.946 159.184 24.978C159.184 26.01 158.95 26.922 158.482 27.714C158.026 28.494 157.396 29.094 156.592 29.514C155.8 29.934 154.912 30.144 153.928 30.144ZM153.928 27.48C154.516 27.48 155.014 27.264 155.422 26.832C155.842 26.4 156.052 25.782 156.052 24.978C156.052 24.174 155.848 23.556 155.44 23.124C155.044 22.692 154.552 22.476 153.964 22.476C153.364 22.476 152.866 22.692 152.47 23.124C152.074 23.544 151.876 24.162 151.876 24.978C151.876 25.782 152.068 26.4 152.452 26.832C152.848 27.264 153.34 27.48 153.928 27.48Z" fill="white"/>
<path d="M179.05 19.956L176.332 30H172.93L171.346 23.484L169.708 30H166.324L163.588 19.956H166.666L168.088 27.138L169.78 19.956H173.038L174.748 27.102L176.152 19.956H179.05Z" fill="white"/>
<path d="M181.771 18.912C181.231 18.912 180.787 18.756 180.439 18.444C180.103 18.12 179.935 17.724 179.935 17.256C179.935 16.776 180.103 16.38 180.439 16.068C180.787 15.744 181.231 15.582 181.771 15.582C182.299 15.582 182.731 15.744 183.067 16.068C183.415 16.38 183.589 16.776 183.589 17.256C183.589 17.724 183.415 18.12 183.067 18.444C182.731 18.756 182.299 18.912 181.771 18.912ZM183.301 19.956V30H180.223V19.956H183.301Z" fill="white"/>
<path d="M191.13 27.39V30H189.564C188.448 30 187.578 29.73 186.954 29.19C186.33 28.638 186.018 27.744 186.018 26.508V22.512H184.794V19.956H186.018V17.508H189.096V19.956H191.112V22.512H189.096V26.544C189.096 26.844 189.168 27.06 189.312 27.192C189.456 27.324 189.696 27.39 190.032 27.39H191.13Z" fill="white"/>
<path d="M199.019 19.848C200.171 19.848 201.095 20.232 201.791 21C202.487 21.756 202.835 22.8 202.835 24.132V30H199.775V24.546C199.775 23.874 199.601 23.352 199.253 22.98C198.905 22.608 198.437 22.422 197.849 22.422C197.261 22.422 196.793 22.608 196.445 22.98C196.097 23.352 195.923 23.874 195.923 24.546V30H192.845V16.68H195.923V21.306C196.235 20.862 196.661 20.508 197.201 20.244C197.741 19.98 198.347 19.848 199.019 19.848Z" fill="white"/>
<path d="M214.19 30.2617C217.07 30.2617 218.822 28.7566 218.822 26.3693C218.822 24.7345 217.823 23.6187 215.76 23.1646L213.736 22.7105C212.97 22.5289 212.568 22.2824 212.568 21.8283C212.568 21.3742 212.944 21.0887 213.865 21.0887C214.933 21.126 215.953 21.5396 216.746 22.2564L218.445 19.7653C217.108 18.8299 215.495 18.3728 213.865 18.4679C211.167 18.4679 209.35 19.7653 209.35 22.0618C209.333 22.877 209.621 23.6692 210.159 24.2818C210.698 24.8943 211.446 25.2828 212.257 25.3703L214.268 25.8503C215.267 26.0709 215.565 26.3693 215.565 26.7586C215.565 27.1478 215.163 27.524 214.268 27.524C212.999 27.4991 211.776 27.0414 210.803 26.2266L209 28.6399C210.485 29.7754 212.323 30.3498 214.19 30.2617Z" fill="white"/>
<path d="M222.181 22.2943C222.572 22.2943 222.954 22.1783 223.278 21.961C223.603 21.7438 223.856 21.435 224.005 21.0739C224.153 20.7128 224.192 20.3156 224.115 19.9327C224.037 19.5498 223.848 19.1984 223.571 18.9231C223.294 18.6478 222.942 18.461 222.558 18.3864C222.175 18.3118 221.778 18.3527 221.418 18.504C221.058 18.6552 220.75 18.91 220.535 19.236C220.32 19.562 220.207 19.9446 220.209 20.3352C220.206 20.5945 220.254 20.852 220.352 21.0921C220.45 21.3322 220.596 21.5502 220.78 21.733C220.964 21.9158 221.183 22.0597 221.424 22.1561C221.664 22.2526 221.922 22.2996 222.181 22.2943Z" fill="white"/>
<path d="M220.055 30.0002H224.31L223.415 22.9551C222.611 23.1627 221.767 23.1627 220.963 22.9551L220.055 30.0002Z" fill="white"/>
<path d="M226.307 30.0002H229.758V23.9022C229.758 22.4102 230.484 21.489 231.886 21.489C233.287 21.489 233.923 22.2545 233.923 23.9022V30.0002H237.322V23.0459C237.322 20.0099 235.804 18.453 233.209 18.453C232.533 18.4236 231.861 18.5679 231.257 18.8723C230.652 19.1767 230.136 19.6309 229.758 20.1915V19.465C229.768 19.3585 229.754 19.2512 229.718 19.1506C229.682 19.0501 229.624 18.9587 229.548 18.8831C229.473 18.8075 229.381 18.7496 229.281 18.7133C229.18 18.6771 229.073 18.6635 228.966 18.6735H226.371L226.307 30.0002Z" fill="white"/>
<path d="M248.441 18.6749C248.334 18.6649 248.227 18.6785 248.127 18.7147C248.026 18.751 247.935 18.8089 247.859 18.8845C247.783 18.9601 247.725 19.0515 247.689 19.152C247.653 19.2526 247.639 19.3599 247.649 19.4664V20.154C247.272 19.598 246.757 19.1492 246.154 18.8513C245.552 18.5534 244.882 18.4167 244.211 18.4544C242.814 18.5888 241.518 19.2387 240.574 20.2774C239.631 21.3161 239.108 22.669 239.108 24.0723C239.108 25.4755 239.631 26.8285 240.574 27.8672C241.518 28.9059 242.814 29.5558 244.211 29.6902C244.86 29.7311 245.51 29.6185 246.107 29.3615C246.704 29.1046 247.233 28.7104 247.649 28.2111V28.9636C247.65 29.3191 247.578 29.6709 247.437 29.9972C247.296 30.3236 247.09 30.6175 246.831 30.8608C246.572 31.1041 246.265 31.2916 245.931 31.4116C245.596 31.5316 245.241 31.5816 244.886 31.5585C243.612 31.5833 242.377 31.119 241.435 30.2611L239.657 32.856C241.171 34.0004 243.043 34.5704 244.938 34.4648C248.337 34.4648 251.101 32.7652 251.101 28.4966V18.6749H248.441ZM245.119 26.6931C244.606 26.6931 244.105 26.5409 243.678 26.2558C243.251 25.9707 242.918 25.5654 242.722 25.0913C242.526 24.6171 242.474 24.0954 242.574 23.592C242.675 23.0886 242.922 22.6263 243.285 22.2634C243.647 21.9005 244.11 21.6533 244.613 21.5532C245.117 21.4531 245.638 21.5045 246.112 21.7009C246.587 21.8973 246.992 22.2299 247.277 22.6566C247.562 23.0833 247.714 23.585 247.714 24.0982C247.714 24.7864 247.441 25.4465 246.954 25.9331C246.468 26.4197 245.808 26.6931 245.119 26.6931Z" fill="white"/>
<path d="M260.6 18.4534C259.908 18.4227 259.219 18.5615 258.592 18.8577C257.966 19.1539 257.421 19.5986 257.006 20.153V19.4654C257.016 19.359 257.002 19.2516 256.966 19.1511C256.93 19.0505 256.872 18.9591 256.796 18.8836C256.721 18.808 256.629 18.75 256.529 18.7138C256.428 18.6775 256.321 18.6639 256.215 18.6739H253.62V34.1524H257.006V28.7551C257.457 29.2555 258.013 29.6499 258.634 29.9101C259.256 30.1703 259.927 30.2898 260.6 30.2601C261.342 30.2412 262.073 30.0715 262.747 29.7614C263.422 29.4513 264.026 29.0073 264.524 28.4563C265.021 27.9054 265.401 27.259 265.641 26.5565C265.881 25.8539 265.976 25.1099 265.919 24.3697C265.98 23.6274 265.888 22.8806 265.65 22.1751C265.411 21.4695 265.032 20.8199 264.534 20.2661C264.036 19.7123 263.43 19.2659 262.754 18.9542C262.077 18.6425 261.344 18.4721 260.6 18.4534ZM259.692 27.2371C259.112 27.2604 258.538 27.1096 258.045 26.8042C257.552 26.4988 257.161 26.0527 256.924 25.5233C256.686 24.994 256.612 24.4056 256.712 23.834C256.812 23.2624 257.08 22.7337 257.483 22.316C257.885 21.8983 258.404 21.6107 258.972 21.4902C259.539 21.3697 260.13 21.4219 260.668 21.6401C261.205 21.8582 261.665 22.2322 261.988 22.7141C262.312 23.196 262.483 23.7635 262.481 24.3438C262.501 24.7201 262.443 25.0965 262.311 25.4495C262.179 25.8025 261.976 26.1246 261.715 26.3959C261.453 26.6672 261.138 26.8819 260.79 27.0266C260.443 27.1713 260.069 27.2429 259.692 27.2371Z" fill="white"/>
<path d="M277.142 18.6742C277.035 18.6642 276.928 18.6778 276.827 18.7141C276.727 18.7503 276.635 18.8083 276.56 18.8839C276.484 18.9594 276.426 19.0508 276.39 19.1514C276.354 19.2519 276.34 19.3593 276.35 19.4657V20.1533C275.929 19.5895 275.374 19.139 274.735 18.8424C274.096 18.5458 273.394 18.4122 272.691 18.4537C271.949 18.4726 271.219 18.6423 270.544 18.9524C269.87 19.2625 269.265 19.7065 268.768 20.2575C268.27 20.8084 267.89 21.4548 267.65 22.1573C267.41 22.8599 267.315 23.6038 267.372 24.3441C267.315 25.0843 267.41 25.8283 267.65 26.5308C267.89 27.2333 268.27 27.8797 268.768 28.4307C269.265 28.9816 269.87 29.4257 270.544 29.7357C271.219 30.0458 271.949 30.2155 272.691 30.2345C273.394 30.2725 274.095 30.1374 274.733 29.841C275.371 29.5446 275.926 29.0961 276.35 28.5348V30.0009H279.749V18.6742H277.142ZM273.6 27.2374C272.864 27.1881 272.175 26.8612 271.671 26.3228C271.168 25.7844 270.887 25.0748 270.887 24.3376C270.887 23.6004 271.168 22.8907 271.671 22.3523C272.175 21.8139 272.864 21.487 273.6 21.4378C274.335 21.487 275.024 21.8139 275.528 22.3523C276.032 22.8907 276.312 23.6004 276.312 24.3376C276.312 25.0748 276.032 25.7844 275.528 26.3228C275.024 26.8612 274.335 27.1881 273.6 27.2374Z" fill="white"/>
<path d="M286.627 30.2607C289.507 30.2607 291.259 28.7556 291.259 26.3683C291.259 24.7336 290.26 23.6178 288.197 23.1637L286.186 22.7096C285.407 22.5279 285.005 22.2814 285.005 21.8273C285.005 21.3732 285.381 21.0878 286.303 21.0878C287.37 21.125 288.391 21.5386 289.183 22.2555L290.882 19.7644C289.545 18.8289 287.932 18.3718 286.303 18.4669C283.604 18.4669 281.787 19.7644 281.787 22.0608C281.77 22.876 282.058 23.6682 282.597 24.2808C283.135 24.8934 283.883 25.2818 284.694 25.3693L286.705 25.8494C287.704 26.0699 288.002 26.3684 288.002 26.7576C288.002 27.1468 287.587 27.5231 286.705 27.5231C285.436 27.4982 284.214 27.0404 283.241 26.2256L281.541 28.7167C283.029 29.843 284.867 30.4081 286.731 30.3126L286.627 30.2607Z" fill="white"/>
<path d="M297.368 30.2614C300.248 30.2614 302 28.7564 302 26.3691C302 24.7343 301.001 23.6185 298.938 23.1644L296.914 22.7103C296.148 22.5287 295.746 22.2822 295.746 21.8281C295.746 21.374 296.123 21.0885 297.044 21.0885C298.108 21.1243 299.125 21.5383 299.911 22.2562L301.611 19.7651C300.28 18.8269 298.669 18.3694 297.044 18.4677C294.345 18.4677 292.529 19.7651 292.529 22.0616C292.511 22.8768 292.8 23.669 293.338 24.2815C293.876 24.8941 294.624 25.2826 295.435 25.3701L297.446 25.8501C298.445 26.0707 298.743 26.3691 298.743 26.7584C298.743 27.1476 298.341 27.5238 297.446 27.5238C296.177 27.4989 294.955 27.0412 293.982 26.2264L292.282 28.7175C293.77 29.8437 295.608 30.4089 297.472 30.3133L297.368 30.2614Z" fill="white"/>
</svg>
